<?xml version="1.0" encoding="utf-8"?>
<!-- Generator: Adobe Illustrator 22.1.0, SVG Export Plug-In . SVG Version: 6.00 Build 0)  -->
<svg version="1.1" id="Layer_1" xmlns="http://www.w3.org/2000/svg" xmlns:xlink="http://www.w3.org/1999/xlink" x="0px" y="0px"
	 viewBox="0 0 497.1 42.2" style="enable-background:new 0 0 497.1 42.2;" xml:space="preserve">
<style type="text/css">
	.st0{clip-path:url(#SVGID_2_);fill:#F4866C;}
	.st1{clip-path:url(#SVGID_2_);fill:#13B297;}
	.st2{clip-path:url(#SVGID_2_);}
	.st3{clip-path:url(#SVGID_4_);fill:#242241;}
</style>
<g id="Investsmart_x5F_Logo_x5F_Fullcolour_x5F_RGB_1_">
	<g>
		<defs>
			<rect id="SVGID_1_" x="0" y="0" width="497.2" height="42.2"/>
		</defs>
		<clipPath id="SVGID_2_">
			<use xlink:href="#SVGID_1_"  style="overflow:visible;"/>
		</clipPath>
		<polygon class="st0" points="88.4,3.6 102,38.6 103.4,42.2 110.9,42.2 113.7,42.2 112.3,38.6 107.1,25.3 98.7,3.6 		"/>
		<polygon class="st1" points="383.5,0 382.1,3.6 368.5,38.6 378.8,38.6 387.2,16.9 392.4,3.6 393.8,0 		"/>
		<g class="st2">
			<defs>
				<rect id="SVGID_3_" x="0" y="0" width="497.2" height="42.2"/>
			</defs>
			<clipPath id="SVGID_4_">
				<use xlink:href="#SVGID_3_"  style="overflow:visible;"/>
			</clipPath>
			<path class="st3" d="M201.4,17c-6.2-1.6-6.7-2.2-6.7-3.6v-0.1c0-1.3,1.4-2.1,3.5-2.1c2.5,0,5.2,1,8.3,3.2l0.7,0.4l4.7-6.8
				l-0.6-0.5c-3.7-2.9-8.1-4.4-13-4.4c-7.4,0-12.6,4.5-12.6,10.9v0.1c0,7.4,5.3,9.3,11.8,11c5.8,1.5,6.2,2.3,6.2,3.5v0.1
				c0,2.2-3.1,2.4-4.1,2.4c-3.3,0-6.3-1.2-9.6-3.9l-0.6-0.5L184,33l0.6,0.5c4,3.6,9.3,5.5,14.9,5.5c8,0,13.2-4.4,13.2-11.2v-0.1
				C212.7,21.3,208.1,18.8,201.4,17"/>
			<polygon class="st3" points="149.1,25 165.1,25 165.1,16.9 149.1,16.9 149.1,11.7 167.2,11.7 167.2,3.6 140.2,3.6 140.2,38.6 
				167.5,38.6 167.5,30.5 149.1,30.5 			"/>
			<polygon class="st3" points="64.6,22.6 49.9,3.6 41.9,3.6 41.9,38.6 50.8,38.6 50.8,18.9 66,38.6 73.5,38.6 73.5,3.6 64.6,3.6 
							"/>
			<polygon class="st3" points="467.6,3.6 467.6,11.9 477.9,11.9 477.9,38.6 486.9,38.6 486.9,11.9 497.1,11.9 497.1,3.6 			"/>
			<path class="st3" d="M443,15.8L443,15.8c0,2.6-1.8,4-4.9,4h-6.7v-8h6.6C440.3,11.8,443,12.5,443,15.8 M452.1,15.5L452.1,15.5
				c0-3.4-1.1-6.3-3.1-8.3c-2.4-2.4-6-3.6-10.4-3.6h-16.2v35h9V27.9h4.6l7.2,10.7h10.6l-8.5-12.4C449.7,24.3,452.1,20.5,452.1,15.5"
				/>
			<polygon class="st3" points="227.2,12 237.4,12 237.4,38.6 246.4,38.6 246.4,12 256.7,12 256.7,3.6 227.2,3.6 			"/>
			<path class="st3" d="M288,17c-6.2-1.6-6.7-2.2-6.7-3.6v-0.1c0-1.3,1.4-2.1,3.5-2.1c2.5,0,5.2,1,8.3,3.2l0.7,0.4l4.7-6.8L298,7.5
				c-3.7-2.9-8.1-4.4-13-4.4c-7.4,0-12.6,4.5-12.6,10.9v0.1c0,7.4,5.3,9.3,11.8,11c5.8,1.5,6.2,2.3,6.2,3.5v0.1
				c0,2.2-3.1,2.4-4.1,2.4c-3.3,0-6.3-1.2-9.6-3.9l-0.6-0.5l-5.4,6.4l0.6,0.5c4,3.6,9.3,5.5,14.9,5.5c8,0,13.2-4.4,13.2-11.2v-0.1
				C299.3,21.3,294.8,18.8,288,17"/>
			<polygon class="st3" points="0,3.6 0,11.9 6.8,11.9 6.8,30.2 0,30.2 0,38.6 22.5,38.6 22.5,30.2 15.8,30.2 15.8,11.9 22.5,11.9 
				22.5,3.6 			"/>
			<polygon class="st3" points="115.6,3.6 107.1,25.3 112.3,38.6 125.9,3.6 			"/>
			<polygon class="st3" points="406,38.6 392.4,3.6 387.2,16.9 395.7,38.6 			"/>
			<polygon class="st3" points="335.2,17 326.7,3.6 317.5,3.6 317.5,38.6 326.4,38.6 326.4,18.8 335.1,31.5 343.9,18.6 343.9,38.6 
				352.8,38.6 352.8,3.6 343.6,3.6 			"/>
		</g>
	</g>
</g>
</svg>
