<svg xmlns="http://www.w3.org/2000/svg" viewBox="0 0 220 20">
  <defs>
    <style>
      .cls-1 {
        fill: rgba(255,255,255,0);
      }

      .cls-2 {
        fill: #f4866c;
      }

      .cls-3 {
        fill: #1ab397;
      }

      .cls-4 {
        fill: #fff;
      }
    </style>
  </defs>
  <g id="Group_28469" data-name="Group 28469" transform="translate(-165 -496)">
    <rect id="Rectangle_7055" data-name="Rectangle 7055" class="cls-1" width="220" height="20" transform="translate(165 496)"/>
    <g id="Artwork_2" data-name="Artwork 2" transform="translate(275 506.343)">
      <g id="Group_28214" data-name="Group 28214" transform="translate(-110 -9.343)">
        <path id="Path_21086" data-name="Path 21086" class="cls-2" d="M88.374,3.613,94.4,19.08l.63,1.619h4.567l-.631-1.619L96.68,13.215l-3.739-9.6Z" transform="translate(-49.267 -2.014)"/>
        <path id="Path_21087" data-name="Path 21087" class="cls-3" d="M375.111,0l-.63,1.618-6.023,15.467h4.567l3.74-9.6,2.283-5.864L379.678,0Z" transform="translate(-205.407)"/>
        <path id="Path_21088" data-name="Path 21088" class="cls-4" d="M191.7,9.292c-2.731-.693-2.96-.96-2.96-1.608V7.64c0-.571.616-.942,1.571-.942A6.648,6.648,0,0,1,194,8.095l.289.2,2.094-3-.254-.2a9.044,9.044,0,0,0-5.77-1.957c-3.287,0-5.582,1.978-5.582,4.81v.044c0,3.275,2.363,4.137,5.217,4.858,2.562.65,2.747,1.018,2.747,1.545v.042c0,.974-1.382,1.048-1.806,1.048a6.545,6.545,0,0,1-4.238-1.717l-.27-.221-2.383,2.826.252.224a9.9,9.9,0,0,0,6.575,2.453c3.545,0,5.837-1.937,5.837-4.934v-.042c0-2.891-2-4-5-4.774" transform="translate(-102.6 -1.744)"/>
        <path id="Path_21089" data-name="Path 21089" class="cls-4" d="M144.14,13.1h7.046V9.508H144.14V7.2h8.007V3.612H140.171V19.1h12.082V15.51H144.14Z" transform="translate(-78.142 -2.014)"/>
        <path id="Path_21090" data-name="Path 21090" class="cls-4" d="M51.919,12.04,45.441,3.614H41.884V19.1h3.947V10.379L52.544,19.1h3.322V3.614H51.919Z" transform="translate(-23.349 -2.015)"/>
        <path id="Path_21091" data-name="Path 21091" class="cls-4" d="M467.582,3.613V7.307h4.548V19.1h3.99V7.307h4.547V3.613Z" transform="translate(-260.667 -2.014)"/>
        <path id="Path_21092" data-name="Path 21092" class="cls-4" d="M431.5,9.01v.044c0,1.092-.811,1.744-2.168,1.744h-2.98V7.245h2.915c1.018,0,2.233.306,2.233,1.765m4.032-.127V8.841a4.965,4.965,0,0,0-1.382-3.627,6.374,6.374,0,0,0-4.6-1.6h-7.186V19.1h3.989V14.365H428.4l3.2,4.735h4.7l-3.783-5.473a4.9,4.9,0,0,0,3.019-4.744" transform="translate(-235.457 -2.014)"/>
        <path id="Path_21093" data-name="Path 21093" class="cls-4" d="M227.158,7.309h4.548V19.1H235.7V7.309h4.548v-3.7H227.158Z" transform="translate(-126.636 -2.015)"/>
        <path id="Path_21094" data-name="Path 21094" class="cls-4" d="M278.316,9.293c-2.731-.692-2.96-.96-2.96-1.608V7.641c0-.571.616-.942,1.571-.942a6.648,6.648,0,0,1,3.685,1.4l.289.2,2.094-3-.254-.2a9.037,9.037,0,0,0-5.77-1.958c-3.287,0-5.583,1.977-5.583,4.809v.044c0,3.275,2.363,4.137,5.217,4.858,2.562.65,2.747,1.018,2.747,1.545v.042c0,.974-1.382,1.048-1.806,1.048a6.548,6.548,0,0,1-4.238-1.717l-.268-.221-2.383,2.827.252.221a9.9,9.9,0,0,0,6.575,2.456c3.545,0,5.836-1.937,5.836-4.934v-.042c0-2.891-2-4-5-4.774" transform="translate(-150.884 -1.744)"/>
        <path id="Path_21095" data-name="Path 21095" class="cls-4" d="M0,3.613V7.307H2.993v8.1H0v3.7H9.976v-3.7H6.983v-8.1H9.976V3.613Z" transform="translate(0 -2.014)"/>
        <path id="Path_21096" data-name="Path 21096" class="cls-4" d="M110.882,3.613l-3.739,9.6,2.284,5.865,6.022-15.467Z" transform="translate(-59.73 -2.014)"/>
        <path id="Path_21097" data-name="Path 21097" class="cls-4" d="M395.535,19.123,389.513,3.655l-2.284,5.866,3.739,9.6Z" transform="translate(-215.872 -2.038)"/>
        <path id="Path_21098" data-name="Path 21098" class="cls-4" d="M325.312,9.558l-3.734-5.945h-4.089V19.1h3.926V10.318l3.852,5.625,3.9-5.689V19.1h3.968V3.613h-4.089Z" transform="translate(-176.993 -2.014)"/>
      </g>
    </g>
  </g>
</svg>
