<svg xmlns="http://www.w3.org/2000/svg" viewBox="0 0 497.143 42.2"><g transform="translate(248.571 21.1)"><g transform="translate(-248.572 -21.1)"><path d="M201.353,17.048c-6.168-1.565-6.685-2.168-6.685-3.631v-.1c0-1.291,1.392-2.127,3.547-2.127,2.511,0,5.233,1.032,8.324,3.152l.654.45,4.726-6.784-.574-.458a20.42,20.42,0,0,0-13.033-4.42c-7.422,0-12.606,4.463-12.606,10.854v.1c0,7.393,5.337,9.345,11.783,10.973,5.786,1.468,6.2,2.3,6.2,3.488v.1c0,2.2-3.121,2.366-4.079,2.366-3.292,0-6.333-1.232-9.571-3.878l-.608-.5-5.385,6.384.572.5a22.365,22.365,0,0,0,14.849,5.546c8.009,0,13.184-4.373,13.184-11.142v-.094c0-6.532-4.516-9.035-11.3-10.784"/><path d="M149.142,25.036h15.913V16.928H149.142V11.721h18.082V3.612H140.18V38.591h27.285V30.483H149.142Z"/><path d="M64.524,22.642,49.894,3.612H41.86V38.591h8.915v-19.7l15.161,19.7h7.5V3.612H64.524Z"/><path d="M467.59,3.612v8.344h10.273V38.589h9.009V11.956h10.271V3.612Z"/><path d="M443.006,15.8v.1c0,2.466-1.83,3.94-4.9,3.94h-6.729V11.814h6.584c2.3,0,5.041.691,5.041,3.988m9.108-.286v-.1a11.209,11.209,0,0,0-3.124-8.192C446.6,4.863,443,3.611,438.592,3.611H422.369V38.589h9.012V27.9H436l7.232,10.69h10.605L445.3,26.231a11.075,11.075,0,0,0,6.818-10.715"/><path d="M227.166,11.958h10.27V38.59h9.01V11.958h10.272V3.612H227.166Z"/><path d="M287.967,17.048c-6.168-1.562-6.684-2.169-6.684-3.631v-.1c0-1.291,1.391-2.127,3.546-2.127,2.512,0,5.233,1.032,8.324,3.155l.654.447,4.728-6.784-.575-.455a20.406,20.406,0,0,0-13.032-4.422c-7.422,0-12.606,4.463-12.606,10.854v.1c0,7.393,5.337,9.344,11.783,10.973,5.786,1.469,6.2,2.3,6.2,3.488v.1c0,2.2-3.121,2.366-4.079,2.366-3.292,0-6.336-1.231-9.573-3.877l-.607-.5-5.385,6.385.572.5a22.365,22.365,0,0,0,14.849,5.546c8.009,0,13.183-4.374,13.183-11.142V27.83c0-6.532-4.515-9.035-11.3-10.784"/><path d="M0,3.612v8.344H6.759V30.245H0v8.344H22.531V30.245H15.772V11.956h6.759V3.612Z"/><path d="M86.416,3.612l13.6,34.934,1.424,3.654h10.313l-1.423-3.654L105.175,25.3,96.732,3.612Z"/><path d="M117.556,3.612,109.111,25.3l5.157,13.246,13.6-34.933Z"/><path d="M381.194,0l-1.423,3.655-13.6,34.933h10.315L384.927,16.9l5.159-13.245L391.509,0Z"/><path d="M407.623,38.588l-13.6-34.934L388.865,16.9l8.444,21.687Z"/><path d="M335.167,17.039,326.736,3.612H317.5V38.591h8.866V18.755l8.7,12.7,8.811-12.848V38.591h8.961V3.612H343.6Z"/></g></g></svg>