<svg id="Group_28206" data-name="Group 28206" xmlns="http://www.w3.org/2000/svg" viewBox="0 0 40 40">
  <defs>
    <style>
      .cls-1 {
        fill: #19b499;
      }

      .cls-2 {
        fill: #242342;
      }

      .cls-3 {
        fill: #fff;
      }
    </style>
  </defs>
  <path id="Path_21017" data-name="Path 21017" class="cls-1" d="M0,31.208A8.789,8.789,0,0,0,8.792,40h22.43A8.787,8.787,0,0,0,40,31.714V8.272A8.8,8.8,0,0,0,31.7,0H8.315A8.781,8.781,0,0,0,0,8.778Z"/>
  <path id="Path_21018" data-name="Path 21018" class="cls-2" d="M52.921,115.265v-2.4H51V107.6h1.923v-2.4H46.5v2.4h1.923v5.264H46.5v2.4Z" transform="translate(-39.775 -89.987)"/>
  <path id="Path_21019" data-name="Path 21019" class="cls-2" d="M178.8,108.291c-1.75-.448-1.909-.622-1.909-1.041v-.029c0-.376.39-.607,1.012-.607a4.306,4.306,0,0,1,2.372.911l.188.13,1.345-1.952-.159-.13a5.807,5.807,0,0,0-3.7-1.273c-2.111,0-3.586,1.287-3.586,3.124v.029c0,2.126,1.518,2.69,3.355,3.153,1.649.419,1.764.665,1.764,1v.029c0,.636-.882.68-1.157.68a4.186,4.186,0,0,1-2.719-1.114l-.174-.145L173.9,112.89l.159.145a6.33,6.33,0,0,0,4.223,1.591c2.285,0,3.745-1.258,3.745-3.2V111.4c-.014-1.88-1.287-2.6-3.225-3.109" transform="translate(-148.752 -89.217)"/>
  <path id="Path_21020" data-name="Path 21020" class="cls-3" d="M114.424,80h-1.258l-.622,1.591L106.6,96.862h2.5l3.688-9.472,2.256-5.8L115.667,80Z" transform="translate(-91.184 -68.431)"/>
</svg>
